<svg width="71" height="28" viewBox="0 0 71 28" fill="none" xmlns="http://www.w3.org/2000/svg">
<path d="M19.296 6.16V22H16.296V13.744L16.464 9.112H16.416L12.024 22H9.312L4.944 9.112H4.896L5.064 13.744V22H2.064V6.16H6.864L9.72 14.8L10.728 18.376H10.776L11.808 14.824L14.64 6.16H19.296ZM26.7276 6.16V22H23.4156V6.16H26.7276ZM34.1573 19.336H42.5093V22H30.8453V6.16H34.1573V19.336ZM48.5713 19.336H56.9233V22H45.2593V6.16H48.5713V19.336Z" fill="white"/>
<ellipse opacity="0.3" cx="61.5909" cy="13.9385" rx="5.59091" ry="7.57609" fill="white"/>
<ellipse opacity="0.8" cx="64.7273" cy="14" rx="6.27273" ry="8.5" fill="white"/>
</svg>
