<svg width="40" height="41" viewBox="0 0 40 41" fill="none" xmlns="http://www.w3.org/2000/svg">
<rect width="40" height="40" transform="translate(0 0.0957031)" fill="white"/>
<path d="M27.2914 5.51211C29.2236 5.51788 31.0751 6.28801 32.4414 7.65432C33.8077 9.02062 34.5778 10.8721 34.5836 12.8043V27.3871C34.5778 29.3193 33.8077 31.1708 32.4414 32.5371C31.0751 33.9034 29.2236 34.6735 27.2914 34.6793H12.7086C10.7764 34.6735 8.92491 33.9034 7.55861 32.5371C6.19231 31.1708 5.42218 29.3193 5.41641 27.3871V12.8043C5.42218 10.8721 6.19231 9.02062 7.55861 7.65432C8.92491 6.28801 10.7764 5.51788 12.7086 5.51211H27.2914ZM27.2914 2.5957H12.7086C7.09375 2.5957 2.5 7.18945 2.5 12.8043V27.3871C2.5 33.002 7.09375 37.5957 12.7086 37.5957H27.2914C32.9062 37.5957 37.5 33.002 37.5 27.3871V12.8043C37.5 7.18945 32.9062 2.5957 27.2914 2.5957Z" fill="#373737"/>
<path d="M29.4789 12.8043C29.0463 12.8043 28.6233 12.676 28.2636 12.4356C27.9039 12.1953 27.6235 11.8536 27.4579 11.4539C27.2924 11.0542 27.249 10.6144 27.3334 10.19C27.4178 9.7657 27.6262 9.37593 27.9321 9.07C28.238 8.76407 28.6278 8.55573 29.0521 8.47133C29.4765 8.38692 29.9163 8.43024 30.316 8.59581C30.7157 8.76138 31.0574 9.04175 31.2977 9.40149C31.5381 9.76122 31.6664 10.1842 31.6664 10.6168C31.667 10.9042 31.6109 11.189 31.5012 11.4546C31.3914 11.7203 31.2303 11.9617 31.0271 12.165C30.8238 12.3682 30.5824 12.5293 30.3168 12.639C30.0511 12.7488 29.7663 12.8049 29.4789 12.8043Z" fill="#373737"/>
<path d="M20 14.2621C21.1538 14.2621 22.2816 14.6042 23.241 15.2452C24.2003 15.8863 24.948 16.7973 25.3895 17.8633C25.8311 18.9292 25.9466 20.1022 25.7215 21.2338C25.4964 22.3654 24.9408 23.4048 24.125 24.2207C23.3091 25.0365 22.2697 25.5921 21.1381 25.8172C20.0065 26.0423 18.8335 25.9268 17.7676 25.4852C16.7016 25.0437 15.7905 24.296 15.1495 23.3367C14.5085 22.3773 14.1664 21.2495 14.1664 20.0957C14.1681 18.549 14.7832 17.0662 15.8769 15.9726C16.9705 14.8789 18.4533 14.2638 20 14.2621ZM20 11.3457C18.2694 11.3457 16.5777 11.8589 15.1388 12.8203C13.6998 13.7818 12.5783 15.1484 11.9161 16.7472C11.2538 18.3461 11.0805 20.1054 11.4181 21.8027C11.7557 23.5001 12.5891 25.0592 13.8128 26.2829C15.0365 27.5066 16.5956 28.34 18.293 28.6776C19.9903 29.0152 21.7496 28.8419 23.3485 28.1796C24.9473 27.5174 26.3139 26.3959 27.2754 24.9569C28.2368 23.518 28.75 21.8263 28.75 20.0957C28.75 17.7751 27.8281 15.5495 26.1872 13.9085C24.5462 12.2676 22.3206 11.3457 20 11.3457Z" fill="#373737"/>
</svg>
