<svg width="40" height="41" viewBox="0 0 40 41" fill="none" xmlns="http://www.w3.org/2000/svg">
<path d="M38.75 8.65013C37.3433 9.26134 35.855 9.66402 34.332 9.84544C35.9326 8.90824 37.1362 7.41932 37.7172 5.65794C36.204 6.54278 34.5512 7.16362 32.8297 7.49388C32.1048 6.73414 31.2329 6.12974 30.2671 5.71743C29.3014 5.30512 28.2618 5.0935 27.2117 5.09544C22.9602 5.09544 19.5195 8.48607 19.5195 12.6658C19.5165 13.2471 19.5831 13.8268 19.718 14.3923C16.6693 14.2494 13.684 13.4717 10.9531 12.1089C8.22222 10.7462 5.80585 8.82838 3.85859 6.47825C3.17545 7.62991 2.81417 8.94391 2.8125 10.2829C2.8125 12.9079 4.18203 15.2283 6.25 16.5876C5.02479 16.5586 3.82468 16.2343 2.75156 15.6423V15.7361C2.75156 19.4079 5.40781 22.4626 8.92344 23.1579C8.26233 23.3342 7.58107 23.4235 6.89687 23.4236C6.41139 23.4244 5.92701 23.3773 5.45078 23.2829C6.42812 26.2908 9.27266 28.4783 12.6422 28.5408C9.9042 30.6509 6.54267 31.7913 3.08594 31.7829C2.47236 31.782 1.85935 31.7455 1.25 31.6736C4.76655 33.9191 8.85425 35.1068 13.0266 35.0954C27.1953 35.0954 34.9359 23.5564 34.9359 13.5486C34.9359 13.2204 34.9273 12.8923 34.9117 12.572C36.4141 11.5033 37.7139 10.1752 38.75 8.65013Z" fill="white"/>
</svg>
