<svg width="40" height="41" viewBox="0 0 40 41" fill="none" xmlns="http://www.w3.org/2000/svg">
<path d="M20.0027 2.5957C10.3386 2.5957 2.50266 10.4316 2.50266 20.0957C2.50266 27.2598 6.81515 33.416 12.9792 36.127C12.9323 34.9082 12.9714 33.4395 13.2839 32.1113C13.6198 30.6895 15.5339 22.5723 15.5339 22.5723C15.5339 22.5723 14.9714 21.4551 14.9714 19.8066C14.9714 17.2129 16.4714 15.2754 18.3464 15.2754C19.9402 15.2754 20.7058 16.4707 20.7058 17.9004C20.7058 19.502 19.6823 21.8926 19.1589 24.1113C18.7214 25.9707 20.0886 27.4785 21.9245 27.4785C25.237 27.4785 27.4714 23.2207 27.4714 18.1738C27.4714 14.3379 24.8855 11.4707 20.1902 11.4707C14.8855 11.4707 11.573 15.4316 11.573 19.8535C11.573 21.377 12.0261 22.4551 12.7292 23.2832C13.0495 23.666 13.0964 23.8223 12.9792 24.2598C12.8933 24.5801 12.7058 25.3535 12.6198 25.666C12.5027 26.1113 12.1433 26.2676 11.7448 26.1035C9.29953 25.1035 8.1589 22.4316 8.1589 19.416C8.1589 14.4473 12.3542 8.48633 20.6667 8.48633C27.3464 8.48633 31.7448 13.3223 31.7448 18.5098C31.7448 25.377 27.9245 30.502 22.2995 30.502C20.4089 30.502 18.6355 29.4785 18.0261 28.3223C18.0261 28.3223 17.0105 32.3535 16.7917 33.1348C16.4245 34.4863 15.698 35.8301 15.0339 36.8848C16.6448 37.36 18.3154 37.602 19.9948 37.6035C29.6589 37.6035 37.4948 29.7676 37.4948 20.1035C37.4948 10.4395 29.6667 2.5957 20.0027 2.5957Z" fill="white"/>
</svg>
