<svg width="36" height="36" viewBox="0 0 36 36" fill="none" xmlns="http://www.w3.org/2000/svg">
<path d="M25.2914 3.51211C27.2236 3.51788 29.0751 4.28801 30.4414 5.65432C31.8077 7.02062 32.5778 8.87206 32.5836 10.8043V25.3871C32.5778 27.3193 31.8077 29.1708 30.4414 30.5371C29.0751 31.9034 27.2236 32.6735 25.2914 32.6793H10.7086C8.77636 32.6735 6.92491 31.9034 5.55861 30.5371C4.19231 29.1708 3.42218 27.3193 3.41641 25.3871V10.8043C3.42218 8.87206 4.19231 7.02062 5.55861 5.65432C6.92491 4.28801 8.77636 3.51788 10.7086 3.51211H25.2914ZM25.2914 0.595703H10.7086C5.09375 0.595703 0.5 5.18945 0.5 10.8043V25.3871C0.5 31.002 5.09375 35.5957 10.7086 35.5957H25.2914C30.9062 35.5957 35.5 31.002 35.5 25.3871V10.8043C35.5 5.18945 30.9062 0.595703 25.2914 0.595703Z" fill="#373737"/>
<path d="M27.4789 10.8043C27.0463 10.8043 26.6233 10.676 26.2636 10.4356C25.9039 10.1953 25.6235 9.85363 25.4579 9.45392C25.2924 9.0542 25.249 8.61437 25.3334 8.19004C25.4178 7.7657 25.6262 7.37593 25.9321 7.07C26.238 6.76407 26.6278 6.55573 27.0521 6.47133C27.4765 6.38692 27.9163 6.43024 28.316 6.59581C28.7157 6.76138 29.0574 7.04175 29.2977 7.40149C29.5381 7.76122 29.6664 8.18415 29.6664 8.6168C29.667 8.90424 29.6109 9.18897 29.5012 9.45465C29.3914 9.72033 29.2303 9.96172 29.0271 10.165C28.8238 10.3682 28.5824 10.5293 28.3168 10.639C28.0511 10.7488 27.7663 10.8049 27.4789 10.8043Z" fill="#373737"/>
<path d="M18 12.2621C19.1538 12.2621 20.2816 12.6042 21.241 13.2452C22.2003 13.8863 22.948 14.7973 23.3895 15.8633C23.8311 16.9292 23.9466 18.1022 23.7215 19.2338C23.4964 20.3654 22.9408 21.4048 22.125 22.2207C21.3091 23.0365 20.2697 23.5921 19.1381 23.8172C18.0065 24.0423 16.8335 23.9268 15.7676 23.4852C14.7016 23.0437 13.7905 22.296 13.1495 21.3367C12.5085 20.3773 12.1664 19.2495 12.1664 18.0957C12.1681 16.549 12.7832 15.0662 13.8769 13.9726C14.9705 12.8789 16.4533 12.2638 18 12.2621ZM18 9.3457C16.2694 9.3457 14.5777 9.85888 13.1388 10.8203C11.6998 11.7818 10.5783 13.1484 9.91605 14.7472C9.25379 16.3461 9.08051 18.1054 9.41813 19.8027C9.75575 21.5001 10.5891 23.0592 11.8128 24.2829C13.0365 25.5066 14.5956 26.34 16.293 26.6776C17.9903 27.0152 19.7496 26.8419 21.3485 26.1796C22.9473 25.5174 24.3139 24.3959 25.2754 22.9569C26.2368 21.518 26.75 19.8263 26.75 18.0957C26.75 15.7751 25.8281 13.5495 24.1872 11.9085C22.5462 10.2676 20.3206 9.3457 18 9.3457Z" fill="#373737"/>
</svg>
